# Blender v2.78 (sub 0) OBJ File: 'untitled.blend'
# www.blender.org
mtllib JeepSmallSeat.mtl
o Small_Seat_Cube.007
v 0.534116 0.341464 -1.985501
v 0.534116 0.341464 -2.569306
v 0.467352 0.250150 -2.569306
v 0.534116 0.250150 -2.058477
v 0.534116 0.250150 -2.496331
v 0.467352 0.250150 -1.985501
v 0.467352 0.250150 -2.058477
v 0.467352 0.250150 -2.496331
v 0.467352 0.055535 -2.569306
v 0.534116 0.055535 -2.569306
v 0.534116 0.055535 -2.058477
v 0.534116 0.055535 -1.985501
v 0.534116 0.055535 -2.496331
v 0.467352 0.055535 -1.985501
v 0.467352 0.055535 -2.058477
v 0.467352 0.055535 -2.496331
v 0.469007 0.776690 -2.558662
v 0.469007 0.776690 -2.649215
v 0.534116 0.341464 -2.478753
v 0.534116 0.776690 -2.649215
v 0.534116 0.784529 -2.490107
v 0.469007 0.536136 -2.435398
v 0.534116 0.528297 -2.503954
v 0.469007 0.341464 -2.569306
v 0.469007 0.528297 -2.503954
v 0.469007 0.341464 -2.478753
v 0.534116 0.776690 -2.558662
v 0.534116 0.536136 -2.435398
v -0.534116 0.341464 -1.985501
v -0.534116 0.341464 -2.569306
v 0.000000 0.341464 -2.569306
v 0.000000 0.250150 -2.569306
v 0.000000 0.341464 -1.985501
v 0.000000 0.250150 -1.985501
v -0.467352 0.250150 -2.569306
v -0.534116 0.250150 -2.058477
v -0.534116 0.250150 -2.496331
v -0.467352 0.250150 -1.985501
v -0.467352 0.250150 -2.058477
v -0.467352 0.250150 -2.496331
v -0.467352 0.055535 -2.569306
v -0.534116 0.055535 -2.569306
v -0.534116 0.055535 -2.058477
v -0.534116 0.055535 -1.985501
v -0.534116 0.055535 -2.496331
v -0.467352 0.055535 -1.985501
v -0.467352 0.055535 -2.058477
v -0.467352 0.055535 -2.496331
v -0.469007 0.776690 -2.558662
v -0.469007 0.776690 -2.649215
v -0.534116 0.341464 -2.478753
v 0.000000 0.536136 -2.435398
v 0.000000 0.784529 -2.490107
v -0.534116 0.776690 -2.649215
v -0.534116 0.784529 -2.490107
v 0.000000 0.528297 -2.503954
v -0.469007 0.536136 -2.435398
v -0.534116 0.528297 -2.503954
v -0.469007 0.341464 -2.569306
v 0.000000 0.776690 -2.558662
v -0.469007 0.528297 -2.503954
v -0.469007 0.341464 -2.478753
v -0.534116 0.776690 -2.558662
v -0.534116 0.536136 -2.435398
vt 0.6980 0.2014
vt 0.6980 0.1711
vt 0.6866 0.1711
vt 0.6866 0.2156
vt 0.7635 0.2156
vt 0.7776 0.2156
vt 0.7776 0.1711
vt 0.7662 0.1711
vt 0.7662 0.2014
vt 0.8218 0.2156
vt 0.8146 0.2156
vt 0.8084 0.2834
vt 0.8155 0.2834
vt 0.8198 0.2447
vt 0.3751 0.3809
vt 0.3751 0.3411
vt 0.3614 0.3411
vt 0.3614 0.3996
vt 0.3747 0.3996
vt 0.4707 0.3996
vt 0.4707 0.3809
vt 0.5826 0.4727
vt 0.5826 0.4142
vt 0.5689 0.4142
vt 0.5689 0.4540
vt 0.4732 0.4540
vt 0.4732 0.4727
vt 0.4654 0.0752
vt 0.5115 0.0752
vt 0.5115 0.0680
vt 0.5181 0.0680
vt 0.5181 0.0248
vt 0.5115 0.0248
vt 0.5115 0.0176
vt 0.4654 0.0176
vt 0.3836 0.0314
vt 0.3732 0.0314
vt 0.3732 0.0428
vt 0.3836 0.0428
vt 0.3836 0.0169
vt 0.3732 0.0169
vt 0.3732 0.0283
vt 0.3836 0.0283
vt 0.3732 0.1194
vt 0.3836 0.1194
vt 0.3836 0.0891
vt 0.3732 0.0891
vt 0.3596 0.0798
vt 0.3700 0.0798
vt 0.3700 0.0495
vt 0.3596 0.0495
vt 0.4079 0.1327
vt 0.4173 0.1327
vt 0.4173 0.1075
vt 0.4079 0.1075
vt 0.3943 0.1327
vt 0.4038 0.1327
vt 0.4038 0.1075
vt 0.3943 0.1075
vt 0.7759 0.2834
vt 0.7674 0.2447
vt 0.7567 0.2460
vt 0.7652 0.2846
vt 0.7277 0.2276
vt 0.5889 0.2276
vt 0.5889 0.3011
vt 0.7470 0.3011
vt 0.7470 0.2276
vt 0.8081 0.4736
vt 0.8221 0.4736
vt 0.8221 0.4542
vt 0.8081 0.4542
vt 0.8221 0.4395
vt 0.7077 0.4395
vt 0.7077 0.4542
vt 0.7900 0.2834
vt 0.5543 0.3514
vt 0.5441 0.3514
vt 0.5441 0.3621
vt 0.5543 0.3621
vt 0.3836 0.1336
vt 0.3735 0.1336
vt 0.3735 0.1627
vt 0.3836 0.1627
vt 0.4711 0.3514
vt 0.4711 0.3621
vt 0.8059 0.2156
vt 0.7996 0.2834
vt 0.5939 0.3146
vt 0.5939 0.3719
vt 0.7020 0.3719
vt 0.7020 0.3146
vt 0.6756 0.0181
vt 0.6756 0.1592
vt 0.7890 0.1592
vt 0.7890 0.1373
vt 0.8047 0.1373
vt 0.8047 0.0181
vt 0.4807 0.2005
vt 0.4125 0.2005
vt 0.4125 0.1701
vt 0.4011 0.1701
vt 0.4011 0.2147
vt 0.4153 0.2147
vt 0.4921 0.2147
vt 0.4921 0.1701
vt 0.4807 0.1701
vt 0.3594 0.2147
vt 0.3617 0.2438
vt 0.3667 0.2825
vt 0.3750 0.2825
vt 0.3677 0.2147
vt 0.5664 0.3809
vt 0.5668 0.3996
vt 0.5801 0.3996
vt 0.5801 0.3411
vt 0.5664 0.3411
vt 0.3639 0.4727
vt 0.3776 0.4540
vt 0.3776 0.4142
vt 0.3639 0.4142
vt 0.4193 0.0176
vt 0.4193 0.0248
vt 0.4127 0.0248
vt 0.4127 0.0680
vt 0.4193 0.0680
vt 0.4193 0.0752
vt 0.3596 0.0314
vt 0.3596 0.0428
vt 0.3700 0.0428
vt 0.3700 0.0314
vt 0.3596 0.0169
vt 0.3596 0.0283
vt 0.3700 0.0283
vt 0.3700 0.0169
vt 0.3700 0.1194
vt 0.3700 0.0891
vt 0.3596 0.0891
vt 0.3596 0.1194
vt 0.3846 0.0798
vt 0.3846 0.0495
vt 0.3742 0.0495
vt 0.3742 0.0798
vt 0.4042 0.1629
vt 0.4042 0.1376
vt 0.3947 0.1376
vt 0.3947 0.1629
vt 0.4177 0.1629
vt 0.4177 0.1376
vt 0.4082 0.1376
vt 0.4082 0.1629
vt 0.4028 0.2825
vt 0.4135 0.2837
vt 0.4220 0.2450
vt 0.4113 0.2438
vt 0.4501 0.2276
vt 0.4308 0.2276
vt 0.4308 0.3011
vt 0.6072 0.4736
vt 0.6072 0.4542
vt 0.5933 0.4542
vt 0.5933 0.4736
vt 0.5933 0.4395
vt 0.3887 0.2825
vt 0.3879 0.3514
vt 0.3879 0.3621
vt 0.3980 0.3621
vt 0.3980 0.3514
vt 0.3596 0.1336
vt 0.3596 0.1627
vt 0.3697 0.1627
vt 0.3697 0.1336
vt 0.3832 0.2825
vt 0.3759 0.2147
vt 0.8101 0.3146
vt 0.8101 0.3719
vt 0.5465 0.0181
vt 0.5465 0.1373
vt 0.5623 0.1373
vt 0.5623 0.1592
vt 0.4409 0.0845
vt 0.4409 0.0857
vt 0.4409 0.1244
vt 0.4409 0.1232
vn -1.0000 0.0000 0.0000
vn 1.0000 0.0000 0.0000
vn -0.0000 0.0000 1.0000
vn -0.0000 0.0000 -1.0000
vn 0.0000 1.0000 0.0000
vn 0.0000 -0.2151 -0.9766
vn 0.0000 -1.0000 0.0000
vn 0.0000 -0.9935 0.1136
vn 0.0000 0.9935 -0.1136
vn 0.0000 -0.1337 -0.9910
vn 0.0000 0.1806 0.9836
vn 0.0000 0.2151 0.9766
usemtl Jeep_Detail_Atlas
s off
f 4/1/1 11/2/1 12/3/1 1/4/1 19/5/1 2/6/1 10/7/1 13/8/1 5/9/1
f 26/10/2 24/11/2 18/12/2 17/13/2 25/14/2
f 3/15/3 9/16/3 10/17/3 2/18/3 24/19/3 31/20/3 32/21/3
f 1/22/4 12/23/4 14/24/4 6/25/4 34/26/4 33/27/4
f 34/28/5 6/29/5 7/30/5 4/31/5 5/32/5 8/33/5 3/34/5 32/35/5
f 11/36/5 15/37/5 14/38/5 12/39/5
f 10/40/5 9/41/5 16/42/5 13/43/5
f 8/44/4 5/45/4 13/46/4 16/47/4
f 4/48/3 7/49/3 15/50/3 11/51/3
f 7/52/2 6/53/2 14/54/2 15/55/2
f 3/56/2 8/57/2 16/58/2 9/59/2
f 27/60/1 23/61/1 28/62/1 21/63/1
f 22/64/6 52/65/6 53/66/6 21/67/6 28/68/6
f 18/69/7 20/70/7 27/71/7 17/72/7
f 21/73/8 53/74/8 60/75/8 17/72/8 27/71/8
f 2/6/1 19/5/1 23/61/1 27/60/1 20/76/1
f 23/77/9 25/78/9 22/79/9 28/80/9
f 19/81/10 26/82/10 25/83/10 23/84/10
f 22/79/9 25/78/9 56/85/9 52/86/9
f 24/11/11 2/87/11 20/88/11 18/12/11
f 25/89/12 17/90/12 60/91/12 56/92/12
f 33/93/7 31/94/7 24/95/7 26/96/7 19/97/7 1/98/7
f 36/99/2 37/100/2 45/101/2 42/102/2 30/103/2 51/104/2 29/105/2 44/106/2 43/107/2
f 62/108/1 61/109/1 49/110/1 50/111/1 59/112/1
f 35/113/3 32/21/3 31/20/3 59/114/3 30/115/3 42/116/3 41/117/3
f 29/118/4 33/27/4 34/26/4 38/119/4 46/120/4 44/121/4
f 34/28/5 32/35/5 35/122/5 40/123/5 37/124/5 36/125/5 39/126/5 38/127/5
f 43/128/5 44/129/5 46/130/5 47/131/5
f 42/132/5 45/133/5 48/134/5 41/135/5
f 40/136/4 48/137/4 45/138/4 37/139/4
f 36/140/3 43/141/3 47/142/3 39/143/3
f 39/144/1 47/145/1 46/146/1 38/147/1
f 35/148/1 41/149/1 48/150/1 40/151/1
f 63/152/2 55/153/2 64/154/2 58/155/2
f 57/156/6 64/157/6 55/158/6 53/66/6 52/65/6
f 50/159/7 49/160/7 63/161/7 54/162/7
f 55/163/8 63/161/8 49/160/8 60/75/8 53/74/8
f 30/103/2 54/164/2 63/152/2 58/155/2 51/104/2
f 58/165/9 64/166/9 57/167/9 61/168/9
f 51/169/10 58/170/10 61/171/10 62/172/10
f 57/167/9 52/86/9 56/85/9 61/168/9
f 59/112/11 50/111/11 54/173/11 30/174/11
f 61/175/12 56/92/12 60/91/12 49/176/12
f 33/93/7 29/177/7 51/178/7 62/179/7 59/180/7 31/94/7
usemtl Jeep_Detail_Atlas_TextureAtlas
f 56/181/1 52/182/1 53/183/1 60/184/1
