# Blender v2.78 (sub 0) OBJ File: 'untitled.blend'
# www.blender.org
mtllib JeepSteeringWheel.mtl
o Steering_Wheel_Cylinder.008
v 0.490074 0.904991 -0.610373
v 0.538112 0.900676 -0.612312
v 0.584304 0.887894 -0.618055
v 0.626875 0.867139 -0.627382
v 0.664189 0.839206 -0.639932
v 0.694811 0.805171 -0.655226
v 0.717566 0.766340 -0.672674
v 0.731578 0.724206 -0.691606
v 0.736310 0.680388 -0.711295
v 0.731578 0.636570 -0.730984
v 0.717566 0.594436 -0.749916
v 0.694811 0.555605 -0.767364
v 0.664189 0.521569 -0.782657
v 0.626875 0.493637 -0.795208
v 0.584304 0.472881 -0.804534
v 0.538112 0.460100 -0.810277
v 0.490074 0.455784 -0.812216
v 0.442036 0.460100 -0.810277
v 0.395844 0.472881 -0.804534
v 0.353273 0.493637 -0.795208
v 0.315959 0.521569 -0.782657
v 0.285337 0.555605 -0.767364
v 0.262582 0.594436 -0.749916
v 0.248570 0.636570 -0.730983
v 0.243839 0.680388 -0.711295
v 0.248570 0.724206 -0.691606
v 0.262582 0.766340 -0.672674
v 0.285337 0.805171 -0.655226
v 0.315960 0.839207 -0.639932
v 0.353273 0.867139 -0.627381
v 0.395844 0.887895 -0.618055
v 0.442036 0.900676 -0.612312
v 0.490074 0.876444 -0.623200
v 0.532007 0.872677 -0.624893
v 0.572328 0.861520 -0.629906
v 0.609488 0.843403 -0.638047
v 0.642059 0.819020 -0.649003
v 0.668789 0.789311 -0.662352
v 0.688652 0.755415 -0.677583
v 0.700883 0.718636 -0.694108
v 0.705013 0.680388 -0.711295
v 0.700883 0.642139 -0.728481
v 0.688652 0.605360 -0.745007
v 0.668789 0.571465 -0.760237
v 0.642059 0.541755 -0.773587
v 0.609488 0.517373 -0.784543
v 0.572328 0.499255 -0.792683
v 0.532007 0.488099 -0.797697
v 0.490074 0.484332 -0.799389
v 0.448142 0.488099 -0.797697
v 0.407820 0.499256 -0.792683
v 0.370660 0.517373 -0.784543
v 0.338089 0.541755 -0.773587
v 0.311359 0.571465 -0.760237
v 0.291497 0.605361 -0.745007
v 0.279265 0.642139 -0.728481
v 0.275135 0.680388 -0.711295
v 0.279265 0.718637 -0.694108
v 0.291497 0.755416 -0.677582
v 0.311359 0.789311 -0.662352
v 0.338090 0.819021 -0.649002
v 0.370661 0.843403 -0.638047
v 0.407821 0.861520 -0.629906
v 0.448142 0.872677 -0.624893
v 0.538112 0.915823 -0.646022
v 0.490074 0.920138 -0.644083
v 0.584304 0.903041 -0.651765
v 0.626875 0.882286 -0.661092
v 0.664189 0.854353 -0.673642
v 0.694811 0.820318 -0.688936
v 0.717566 0.781487 -0.706384
v 0.731578 0.739353 -0.725316
v 0.736310 0.695535 -0.745005
v 0.731578 0.651717 -0.764694
v 0.717566 0.609583 -0.783626
v 0.694811 0.570752 -0.801074
v 0.664189 0.536716 -0.816367
v 0.626875 0.508784 -0.828918
v 0.584304 0.488028 -0.838244
v 0.538112 0.475247 -0.843987
v 0.490074 0.470931 -0.845926
v 0.442036 0.475247 -0.843987
v 0.395844 0.488028 -0.838244
v 0.353273 0.508784 -0.828918
v 0.315959 0.536716 -0.816367
v 0.285337 0.570752 -0.801074
v 0.262582 0.609583 -0.783626
v 0.248570 0.651717 -0.764693
v 0.243839 0.695535 -0.745005
v 0.248570 0.739353 -0.725316
v 0.262582 0.781487 -0.706384
v 0.285337 0.820318 -0.688936
v 0.315960 0.854354 -0.673642
v 0.353273 0.882286 -0.661091
v 0.395844 0.903041 -0.651765
v 0.442036 0.915823 -0.646022
v 0.532007 0.887824 -0.658603
v 0.490074 0.891591 -0.656910
v 0.572328 0.876667 -0.663616
v 0.609488 0.858550 -0.671757
v 0.642059 0.834167 -0.682713
v 0.668789 0.804458 -0.696062
v 0.688652 0.770562 -0.711293
v 0.700883 0.733783 -0.727818
v 0.705013 0.695535 -0.745005
v 0.700883 0.657286 -0.762191
v 0.688652 0.620507 -0.778717
v 0.668789 0.586612 -0.793947
v 0.642059 0.556902 -0.807297
v 0.609488 0.532520 -0.818253
v 0.572328 0.514402 -0.826393
v 0.532007 0.503246 -0.831407
v 0.490074 0.499479 -0.833099
v 0.448142 0.503246 -0.831406
v 0.407820 0.514403 -0.826393
v 0.370660 0.532520 -0.818253
v 0.338089 0.556902 -0.807297
v 0.311359 0.586612 -0.793947
v 0.291497 0.620508 -0.778717
v 0.279265 0.657286 -0.762191
v 0.275135 0.695535 -0.745005
v 0.279265 0.733784 -0.727818
v 0.291497 0.770563 -0.711292
v 0.311359 0.804458 -0.696062
v 0.338090 0.834168 -0.682712
v 0.370661 0.858550 -0.671757
v 0.407821 0.876667 -0.663616
v 0.448142 0.887824 -0.658603
v 0.490074 0.711347 -0.724628
v 0.490074 0.706124 -0.713003
v 0.463776 0.669799 -0.743297
v 0.463776 0.664575 -0.731672
v 0.516372 0.669799 -0.743297
v 0.516372 0.664575 -0.731672
v 0.463776 0.496879 -0.820995
v 0.490074 0.494517 -0.822057
v 0.463776 0.491656 -0.809370
v 0.490074 0.489293 -0.810432
v 0.516372 0.496879 -0.820995
v 0.516372 0.491656 -0.809370
v 0.291497 0.765601 -0.700250
v 0.290061 0.761282 -0.702190
v 0.291497 0.760377 -0.688625
v 0.290061 0.756059 -0.690565
v 0.311359 0.799496 -0.685019
v 0.315002 0.803545 -0.683200
v 0.311359 0.794273 -0.673395
v 0.315002 0.798322 -0.671575
v 0.665146 0.803545 -0.683200
v 0.668789 0.794273 -0.673395
v 0.665146 0.798322 -0.671575
v 0.668789 0.799496 -0.685020
v 0.688652 0.760377 -0.688625
v 0.688652 0.765600 -0.700250
v 0.690088 0.756059 -0.690565
v 0.690088 0.761283 -0.702190
v 0.490074 0.678262 -0.753677
v 0.490074 0.472050 -0.294747
v 0.501424 0.681626 -0.752165
v 0.501424 0.475414 -0.293236
v 0.508438 0.690433 -0.748208
v 0.508438 0.484221 -0.289279
v 0.508438 0.701318 -0.743317
v 0.508438 0.495106 -0.284387
v 0.501424 0.710125 -0.739360
v 0.501424 0.503912 -0.280430
v 0.490074 0.713488 -0.737849
v 0.490074 0.507276 -0.278919
v 0.478724 0.710125 -0.739360
v 0.478724 0.503913 -0.280430
v 0.471710 0.701318 -0.743317
v 0.471710 0.495106 -0.284387
v 0.471710 0.690433 -0.748208
v 0.471710 0.484221 -0.289279
v 0.478724 0.681626 -0.752165
v 0.478724 0.475414 -0.293236
v 0.507452 0.678669 -0.725339
v 0.501424 0.671100 -0.728740
v 0.472696 0.678669 -0.725339
v 0.478724 0.671100 -0.728740
v 0.490074 0.667737 -0.730251
v 0.487611 0.702233 -0.714751
v 0.490074 0.702963 -0.714423
v 0.492537 0.702233 -0.714751
v 0.507452 0.683892 -0.736964
v 0.501424 0.676324 -0.740365
v 0.472696 0.683892 -0.736964
v 0.478724 0.676324 -0.740365
v 0.490074 0.672960 -0.741876
v 0.487611 0.707456 -0.726376
v 0.490074 0.708186 -0.726048
v 0.492537 0.707456 -0.726376
v 0.471710 0.685130 -0.736408
v 0.471710 0.696016 -0.731517
v 0.478724 0.704822 -0.727560
v 0.471710 0.679907 -0.724783
v 0.471710 0.690792 -0.719892
v 0.478724 0.699599 -0.715935
v 0.508438 0.679907 -0.724783
v 0.508438 0.690792 -0.719892
v 0.501424 0.699599 -0.715935
v 0.508438 0.685130 -0.736408
v 0.508438 0.696016 -0.731517
v 0.501424 0.704822 -0.727560
vt 0.0166 0.8652
vt 0.0166 0.8448
vt 0.0291 0.8461
vt 0.0291 0.8639
vt 0.2028 0.9040
vt 0.1919 0.9209
vt 0.1822 0.9125
vt 0.1916 0.8977
vt 0.0204 0.8248
vt 0.0324 0.8287
vt 0.1782 0.9353
vt 0.1702 0.9251
vt 0.0278 0.8060
vt 0.0389 0.8123
vt 0.1620 0.9466
vt 0.1561 0.9350
vt 0.0386 0.7891
vt 0.0483 0.7975
vt 0.1441 0.9544
vt 0.1404 0.9418
vt 0.0523 0.7747
vt 0.0603 0.7849
vt 0.1250 0.9584
vt 0.1238 0.9452
vt 0.0685 0.7634
vt 0.0745 0.7750
vt 0.1055 0.9584
vt 0.1068 0.9452
vt 0.0865 0.7556
vt 0.0901 0.7682
vt 0.0865 0.9544
vt 0.0901 0.9418
vt 0.1055 0.7516
vt 0.1068 0.7648
vt 0.0685 0.9466
vt 0.0745 0.9350
vt 0.1250 0.7516
vt 0.1238 0.7648
vt 0.0523 0.9353
vt 0.0603 0.9251
vt 0.2028 0.8060
vt 0.2102 0.8248
vt 0.1981 0.8287
vt 0.1916 0.8123
vt 0.1441 0.7556
vt 0.1404 0.7682
vt 0.0386 0.9209
vt 0.0483 0.9125
vt 0.2140 0.8448
vt 0.2014 0.8461
vt 0.1620 0.7634
vt 0.1561 0.7750
vt 0.0278 0.9040
vt 0.0389 0.8977
vt 0.2140 0.8652
vt 0.2014 0.8639
vt 0.1782 0.7747
vt 0.1702 0.7849
vt 0.0204 0.8852
vt 0.0324 0.8813
vt 0.2102 0.8852
vt 0.1981 0.8813
vt 0.1919 0.7891
vt 0.1822 0.7975
vt 0.1782 0.5670
vt 0.1702 0.5772
vt 0.1561 0.5673
vt 0.1620 0.5557
vt 0.1055 0.7507
vt 0.1068 0.7375
vt 0.1238 0.7375
vt 0.1250 0.7507
vt 0.1404 0.5605
vt 0.1441 0.5479
vt 0.1404 0.7341
vt 0.1441 0.7467
vt 0.1238 0.5571
vt 0.1250 0.5439
vt 0.1561 0.7273
vt 0.1620 0.7389
vt 0.1068 0.5571
vt 0.1055 0.5439
vt 0.1702 0.7174
vt 0.1782 0.7276
vt 0.0901 0.5605
vt 0.0865 0.5479
vt 0.1822 0.7048
vt 0.1919 0.7132
vt 0.0745 0.5673
vt 0.0685 0.5557
vt 0.1916 0.6900
vt 0.2028 0.6963
vt 0.0603 0.5772
vt 0.0523 0.5670
vt 0.1981 0.6736
vt 0.2102 0.6774
vt 0.0483 0.5898
vt 0.0386 0.5814
vt 0.2014 0.6562
vt 0.2140 0.6575
vt 0.0389 0.6046
vt 0.0278 0.5983
vt 0.2014 0.6384
vt 0.2140 0.6371
vt 0.0278 0.6963
vt 0.0389 0.6900
vt 0.0483 0.7048
vt 0.0386 0.7132
vt 0.0324 0.6210
vt 0.0204 0.6171
vt 0.1981 0.6210
vt 0.2102 0.6171
vt 0.0603 0.7174
vt 0.0523 0.7276
vt 0.0291 0.6384
vt 0.0166 0.6371
vt 0.1916 0.6046
vt 0.2028 0.5983
vt 0.0745 0.7273
vt 0.0685 0.7389
vt 0.0291 0.6562
vt 0.0166 0.6575
vt 0.1822 0.5898
vt 0.1919 0.5814
vt 0.0901 0.7341
vt 0.0865 0.7467
vt 0.0324 0.6736
vt 0.0204 0.6774
vt 0.3681 0.6152
vt 0.3830 0.6152
vt 0.3830 0.6330
vt 0.3782 0.6330
vt 0.3782 0.6309
vt 0.3730 0.6309
vt 0.3730 0.6330
vt 0.3681 0.6330
vt 0.3946 0.7348
vt 0.4095 0.7348
vt 0.4095 0.7543
vt 0.3946 0.7543
vt 0.3681 0.5977
vt 0.3830 0.5977
vt 0.4095 0.7745
vt 0.3946 0.7745
vt 0.3681 0.5813
vt 0.3830 0.5813
vt 0.4095 0.7948
vt 0.3946 0.7948
vt 0.3681 0.5665
vt 0.3830 0.5665
vt 0.4095 0.8143
vt 0.3946 0.8143
vt 0.3681 0.5539
vt 0.3830 0.5539
vt 0.4095 0.8323
vt 0.3946 0.8323
vt 0.3681 0.5439
vt 0.3830 0.5439
vt 0.4095 0.8480
vt 0.3946 0.8480
vt 0.3998 0.6590
vt 0.4147 0.6590
vt 0.4147 0.6715
vt 0.3998 0.6715
vt 0.3523 0.5439
vt 0.3672 0.5439
vt 0.3672 0.5583
vt 0.3523 0.5583
vt 0.3998 0.6442
vt 0.4147 0.6442
vt 0.3672 0.5751
vt 0.3523 0.5751
vt 0.3998 0.6278
vt 0.4147 0.6278
vt 0.3672 0.5939
vt 0.3523 0.5939
vt 0.3998 0.6104
vt 0.4047 0.6104
vt 0.4047 0.6213
vt 0.4098 0.6213
vt 0.4098 0.6104
vt 0.4147 0.6104
vt 0.3672 0.6139
vt 0.3523 0.6139
vt 0.3998 0.5926
vt 0.4147 0.5926
vt 0.4098 0.5992
vt 0.4047 0.5992
vt 0.3672 0.6342
vt 0.3523 0.6342
vt 0.3998 0.5752
vt 0.4147 0.5752
vt 0.3672 0.6542
vt 0.3523 0.6542
vt 0.3998 0.5587
vt 0.4147 0.5587
vt 0.3672 0.6731
vt 0.3523 0.6731
vt 0.3998 0.5439
vt 0.4147 0.5439
vt 0.3672 0.6900
vt 0.3523 0.6900
vt 0.4095 0.8643
vt 0.3946 0.8643
vt 0.3946 0.8490
vt 0.4095 0.8490
vt 0.3672 0.7045
vt 0.3523 0.7045
vt 0.3937 0.7930
vt 0.3788 0.7930
vt 0.3788 0.7726
vt 0.3937 0.7726
vt 0.4095 0.8811
vt 0.3946 0.8811
vt 0.3672 0.7159
vt 0.3523 0.7159
vt 0.3788 0.7527
vt 0.3937 0.7527
vt 0.4095 0.8987
vt 0.3946 0.8987
vt 0.3937 0.8630
vt 0.3788 0.8630
vt 0.3788 0.8486
vt 0.3937 0.8486
vt 0.3788 0.7338
vt 0.3937 0.7338
vt 0.4095 0.9164
vt 0.3946 0.9164
vt 0.3788 0.8317
vt 0.3937 0.8317
vt 0.3788 0.7169
vt 0.3937 0.7169
vt 0.4095 0.9336
vt 0.3946 0.9336
vt 0.3788 0.8130
vt 0.3937 0.8130
vt 0.3840 0.5439
vt 0.3989 0.5439
vt 0.3989 0.5614
vt 0.3840 0.5614
vt 0.4095 0.9497
vt 0.4046 0.9497
vt 0.4046 0.9478
vt 0.3995 0.9478
vt 0.3995 0.9497
vt 0.3946 0.9497
vt 0.3989 0.5806
vt 0.3840 0.5806
vt 0.4095 0.9639
vt 0.4046 0.9639
vt 0.4156 0.5577
vt 0.4305 0.5577
vt 0.4305 0.5734
vt 0.4156 0.5734
vt 0.3989 0.6008
vt 0.3840 0.6008
vt 0.4156 0.6428
vt 0.4305 0.6428
vt 0.4305 0.6584
vt 0.4256 0.6584
vt 0.4256 0.6563
vt 0.4205 0.6563
vt 0.4205 0.6584
vt 0.4156 0.6584
vt 0.4156 0.5439
vt 0.4305 0.5439
vt 0.3989 0.6211
vt 0.3840 0.6211
vt 0.4156 0.6258
vt 0.4305 0.6258
vt 0.3681 0.6815
vt 0.3830 0.6815
vt 0.3830 0.6940
vt 0.3681 0.6940
vt 0.3989 0.6409
vt 0.3840 0.6409
vt 0.4156 0.6081
vt 0.4305 0.6081
vt 0.3681 0.6668
vt 0.3830 0.6668
vt 0.3989 0.6592
vt 0.3840 0.6592
vt 0.4156 0.5904
vt 0.4305 0.5904
vt 0.3681 0.6504
vt 0.3730 0.6504
vt 0.3730 0.6526
vt 0.3782 0.6526
vt 0.3782 0.6504
vt 0.3830 0.6504
vt 0.3989 0.6755
vt 0.3840 0.6755
vt 0.3946 0.7169
vt 0.4095 0.7169
vt 0.3107 0.7980
vt 0.3514 0.8719
vt 0.3496 0.8734
vt 0.3346 0.8818
vt 0.3327 0.8824
vt 0.2923 0.8091
vt 0.2986 0.8053
vt 0.3090 0.7990
vt 0.2923 0.6394
vt 0.2160 0.6394
vt 0.2149 0.6283
vt 0.2160 0.6172
vt 0.2923 0.6172
vt 0.2986 0.6210
vt 0.3090 0.6273
vt 0.3107 0.6283
vt 0.3090 0.6293
vt 0.2986 0.6356
vt 0.2923 0.7869
vt 0.3327 0.7136
vt 0.3346 0.7142
vt 0.3496 0.7226
vt 0.3514 0.7242
vt 0.3090 0.7970
vt 0.2986 0.7907
vt 0.4366 0.6205
vt 0.4366 0.6821
vt 0.4314 0.6821
vt 0.4314 0.6205
vt 0.3327 0.5439
vt 0.3346 0.5445
vt 0.3496 0.5529
vt 0.3514 0.5544
vt 0.4304 0.7946
vt 0.4304 0.7169
vt 0.4356 0.7169
vt 0.4356 0.7946
vt 0.3514 0.7021
vt 0.3496 0.7037
vt 0.3346 0.7121
vt 0.3327 0.7127
vt 0.3788 0.9478
vt 0.3788 0.8640
vt 0.3839 0.8640
vt 0.3839 0.9478
vt 0.4356 0.8638
vt 0.4304 0.8638
vt 0.4314 0.5439
vt 0.4366 0.5439
vt 0.3900 0.8640
vt 0.3900 0.9430
vt 0.3849 0.9430
vt 0.3849 0.8640
vt 0.2160 0.8091
vt 0.2149 0.7980
vt 0.2160 0.7869
vt 0.3995 0.9639
vt 0.3946 0.9639
vt 0.2464 0.8872
vt 0.2516 0.8872
vt 0.2516 0.8922
vt 0.2464 0.8922
vt 0.2516 0.8959
vt 0.2516 0.8965
vt 0.2464 0.8965
vt 0.2700 0.8928
vt 0.2648 0.8928
vt 0.2648 0.8878
vt 0.2700 0.8878
vt 0.2648 0.8834
vt 0.2700 0.8834
vt 0.2587 0.8834
vt 0.2639 0.8834
vt 0.2639 0.8872
vt 0.2639 0.8883
vt 0.2587 0.8883
vt 0.2639 0.8893
vt 0.2639 0.8929
vt 0.2587 0.8929
vt 0.2525 0.8834
vt 0.2577 0.8834
vt 0.2577 0.8864
vt 0.2525 0.8864
vt 0.2577 0.8912
vt 0.2525 0.8912
vt 0.2177 0.8849
vt 0.2223 0.8834
vt 0.2269 0.8849
vt 0.2297 0.8890
vt 0.2297 0.8940
vt 0.2269 0.8981
vt 0.2223 0.8996
vt 0.2177 0.8981
vt 0.2149 0.8940
vt 0.2149 0.8890
vt 0.2577 0.8919
vt 0.2577 0.8960
vt 0.2525 0.8960
vt 0.2464 0.8834
vt 0.2516 0.8834
vt 0.2380 0.8996
vt 0.2335 0.8981
vt 0.2306 0.8940
vt 0.2306 0.8890
vt 0.2335 0.8849
vt 0.2380 0.8834
vt 0.2426 0.8849
vt 0.2454 0.8890
vt 0.2454 0.8940
vt 0.2426 0.8981
vt 0.3703 0.7169
vt 0.3750 0.7169
vt 0.3750 0.9183
vt 0.3703 0.9183
vt 0.4295 0.9183
vt 0.4252 0.9183
vt 0.4252 0.7169
vt 0.4295 0.7169
vt 0.3779 0.7169
vt 0.3779 0.9183
vt 0.3658 0.7169
vt 0.3697 0.7169
vt 0.3658 0.9183
vt 0.3649 0.9183
vt 0.3643 0.9183
vt 0.3608 0.9183
vt 0.3608 0.7169
vt 0.3649 0.7169
vt 0.3560 0.9183
vt 0.3560 0.7169
vt 0.4148 0.7169
vt 0.4159 0.7169
vt 0.4195 0.7169
vt 0.4195 0.9183
vt 0.4148 0.9183
vt 0.4104 0.7169
vt 0.4139 0.7169
vt 0.4104 0.9183
vt 0.3523 0.9183
vt 0.3523 0.7169
vt 0.4205 0.9183
vt 0.4205 0.7169
vn 0.0000 0.4099 -0.9121
vn 0.0000 -0.4099 0.9121
vn 0.9808 0.1780 0.0800
vn 0.9239 0.3491 0.1568
vn 0.9569 0.2648 0.1190
vn -0.7071 0.6450 0.2898
vn -0.5556 0.7584 0.3408
vn 1.0000 -0.0000 0.0000
vn -0.3827 0.8427 0.3787
vn 0.9808 -0.1780 -0.0800
vn -0.1951 0.8946 0.4020
vn 0.9239 -0.3491 -0.1568
vn 0.0000 0.9121 0.4099
vn 0.8315 -0.5068 -0.2277
vn 0.1951 0.8946 0.4020
vn 0.7071 -0.6450 -0.2898
vn 0.3827 0.8427 0.3787
vn 0.5556 -0.7584 -0.3408
vn 0.5556 0.7584 0.3408
vn 0.3827 -0.8427 -0.3787
vn 0.7071 0.6450 0.2898
vn 0.1951 -0.8946 -0.4020
vn 0.8315 0.5068 0.2277
vn -0.0000 -0.9121 -0.4099
vn 0.0980 -0.9078 -0.4079
vn -0.1951 -0.8946 -0.4020
vn -0.0980 -0.9078 -0.4079
vn -0.3827 -0.8427 -0.3787
vn -0.5556 -0.7584 -0.3408
vn -0.7071 -0.6450 -0.2898
vn -0.8315 -0.5068 -0.2277
vn -0.9239 -0.3491 -0.1568
vn -0.9808 -0.1780 -0.0800
vn -1.0000 0.0000 0.0000
vn -0.9808 0.1780 0.0800
vn -0.9239 0.3491 0.1568
vn -0.9569 0.2648 0.1190
vn -0.8315 0.5068 0.2277
vn -0.7730 0.5787 0.2600
vn 0.7730 0.5787 0.2600
vn 0.3618 -0.1268 0.9236
vn 0.1382 -0.7545 0.6415
vn 0.3618 0.6063 -0.7081
vn 0.1382 -0.0214 -0.9902
vn -0.1382 -0.0214 -0.9902
vn -0.3618 0.6063 -0.7081
vn -0.1382 -0.7545 0.6416
vn -0.3618 -0.1268 0.9236
vn 0.5000 0.7899 0.3549
vn -0.5000 -0.7899 -0.3549
vn -0.5000 0.7899 0.3549
vn 0.5000 -0.7899 -0.3549
vn -0.3090 0.8675 0.3898
vn -0.8090 0.5361 0.2409
vn -0.8090 -0.5361 -0.2409
vn -0.3090 -0.8675 -0.3898
vn 0.3090 -0.8675 -0.3898
vn 0.8090 -0.5361 -0.2409
vn 0.8090 0.5362 0.2409
vn 0.3090 0.8675 0.3898
vn 0.8090 0.5361 0.2409
vn -0.8090 0.5362 0.2409
usemtl Jeep_Detail_Atlas
s 1
f 19/1/1 20/2/1 52/3/1 51/4/1
f 6/5/1 7/6/1 39/7/1 38/8/1
f 20/2/1 21/9/1 53/10/1 52/3/1
f 7/6/1 8/11/1 40/12/1 39/7/1
f 21/9/1 22/13/1 54/14/1 53/10/1
f 8/11/1 9/15/1 41/16/1 40/12/1
f 22/13/1 23/17/1 55/18/1 54/14/1
f 9/15/1 10/19/1 42/20/1 41/16/1
f 23/17/1 24/21/1 56/22/1 55/18/1
f 10/19/1 11/23/1 43/24/1 42/20/1
f 24/21/1 25/25/1 57/26/1 56/22/1
f 11/23/1 12/27/1 44/28/1 43/24/1
f 25/25/1 26/29/1 58/30/1 57/26/1
f 12/27/1 13/31/1 45/32/1 44/28/1
f 26/29/1 27/33/1 59/34/1 58/30/1
f 13/31/1 14/35/1 46/36/1 45/32/1
f 27/33/1 28/37/1 60/38/1 59/34/1
f 14/35/1 15/39/1 47/40/1 46/36/1
f 1/41/1 2/42/1 34/43/1 33/44/1
f 28/37/1 29/45/1 61/46/1 60/38/1
f 15/39/1 16/47/1 48/48/1 47/40/1
f 2/42/1 3/49/1 35/50/1 34/43/1
f 29/45/1 30/51/1 62/52/1 61/46/1
f 16/47/1 17/53/1 49/54/1 48/48/1
f 3/49/1 4/55/1 36/56/1 35/50/1
f 30/51/1 31/57/1 63/58/1 62/52/1
f 17/53/1 18/59/1 50/60/1 49/54/1
f 4/55/1 5/61/1 37/62/1 36/56/1
f 31/57/1 32/63/1 64/64/1 63/58/1
f 18/59/1 19/1/1 51/4/1 50/60/1
f 5/61/1 6/5/1 38/8/1 37/62/1
f 32/63/1 1/41/1 33/44/1 64/64/1
f 83/65/2 115/66/2 116/67/2 84/68/2
f 70/69/2 102/70/2 103/71/2 71/72/2
f 84/68/2 116/67/2 117/73/2 85/74/2
f 71/72/2 103/71/2 104/75/2 72/76/2
f 85/74/2 117/73/2 118/77/2 86/78/2
f 72/76/2 104/75/2 105/79/2 73/80/2
f 86/78/2 118/77/2 119/81/2 87/82/2
f 73/80/2 105/79/2 106/83/2 74/84/2
f 87/82/2 119/81/2 120/85/2 88/86/2
f 74/84/2 106/83/2 107/87/2 75/88/2
f 88/86/2 120/85/2 121/89/2 89/90/2
f 75/88/2 107/87/2 108/91/2 76/92/2
f 89/90/2 121/89/2 122/93/2 90/94/2
f 76/92/2 108/91/2 109/95/2 77/96/2
f 90/94/2 122/93/2 123/97/2 91/98/2
f 77/96/2 109/95/2 110/99/2 78/100/2
f 91/98/2 123/97/2 124/101/2 92/102/2
f 78/100/2 110/99/2 111/103/2 79/104/2
f 66/105/2 98/106/2 97/107/2 65/108/2
f 92/102/2 124/101/2 125/109/2 93/110/2
f 79/104/2 111/103/2 112/111/2 80/112/2
f 65/108/2 97/107/2 99/113/2 67/114/2
f 93/110/2 125/109/2 126/115/2 94/116/2
f 80/112/2 112/111/2 113/117/2 81/118/2
f 67/114/2 99/113/2 100/119/2 68/120/2
f 94/116/2 126/115/2 127/121/2 95/122/2
f 81/118/2 113/117/2 114/123/2 82/124/2
f 68/120/2 100/119/2 101/125/2 69/126/2
f 95/122/2 127/121/2 128/127/2 96/128/2
f 82/124/2 114/123/2 115/66/2 83/65/2
f 69/126/2 101/125/2 102/70/2 70/69/2
f 96/128/2 128/127/2 98/106/2 66/105/2
f 40/129/3 104/130/3 103/131/4 154/132/4 156/133/5 155/134/5 153/135/4 39/136/4
f 13/137/6 77/138/6 78/139/7 14/140/7
f 41/141/8 105/142/8 104/130/3 40/129/3
f 14/140/7 78/139/7 79/143/9 15/144/9
f 42/145/10 106/146/10 105/142/8 41/141/8
f 15/144/9 79/143/9 80/147/11 16/148/11
f 43/149/12 107/150/12 106/146/10 42/145/10
f 16/148/11 80/147/11 81/151/13 17/152/13
f 44/153/14 108/154/14 107/150/12 43/149/12
f 17/152/13 81/151/13 82/155/15 18/156/15
f 45/157/16 109/158/16 108/154/14 44/153/14
f 18/156/15 82/155/15 83/159/17 19/160/17
f 46/161/18 110/162/18 109/163/16 45/164/16
f 19/165/17 83/166/17 84/167/19 20/168/19
f 47/169/20 111/170/20 110/162/18 46/161/18
f 20/168/19 84/167/19 85/171/21 21/172/21
f 48/173/22 112/174/22 111/170/20 47/169/20
f 21/172/21 85/171/21 86/175/23 22/176/23
f 49/177/24 138/178/24 140/179/25 139/180/25 136/181/24 113/182/24 112/174/22 48/173/22
f 22/176/23 86/175/23 87/183/4 23/184/4
f 50/185/26 114/186/26 113/182/24 136/181/24 135/187/27 137/188/27 138/178/24 49/177/24
f 23/184/4 87/183/4 88/189/3 24/190/3
f 51/191/28 115/192/28 114/186/26 50/185/26
f 24/190/3 88/189/3 89/193/8 25/194/8
f 52/195/29 116/196/29 115/192/28 51/191/28
f 25/194/8 89/193/8 90/197/10 26/198/10
f 53/199/30 117/200/30 116/196/29 52/195/29
f 26/198/10 90/197/10 91/201/12 27/202/12
f 54/203/31 118/204/31 117/205/30 53/206/30
f 27/202/12 91/201/12 92/207/14 28/208/14
f 1/209/24 66/210/24 65/211/26 2/212/26
f 55/213/32 119/214/32 118/204/31 54/203/31
f 28/208/14 92/207/14 93/215/16 29/216/16
f 2/212/26 65/211/26 67/217/28 3/218/28
f 56/219/33 120/220/33 119/214/32 55/213/32
f 29/221/16 93/222/16 94/223/18 30/224/18
f 3/218/28 67/217/28 68/225/29 4/226/29
f 57/227/34 121/228/34 120/220/33 56/219/33
f 30/224/18 94/223/18 95/229/20 31/230/20
f 4/226/29 68/225/29 69/231/30 5/232/30
f 58/233/35 122/234/35 121/228/34 57/227/34
f 31/230/20 95/229/20 96/235/22 32/236/22
f 5/237/30 69/238/30 70/239/31 6/240/31
f 59/241/36 143/242/36 144/243/37 142/244/37 141/245/36 123/246/36 122/234/35 58/233/35
f 32/236/22 96/235/22 66/210/24 1/209/24
f 6/240/31 70/239/31 71/247/32 7/248/32
f 60/249/38 147/250/38 143/242/36 59/241/36
f 34/251/15 97/252/15 98/253/13 33/254/13
f 7/248/32 71/247/32 72/255/33 8/256/33
f 61/257/6 125/258/6 124/259/38 145/260/38 146/261/39 148/262/39 147/263/38 60/264/38
f 35/265/17 99/266/17 97/252/15 34/251/15
f 8/256/33 72/255/33 73/267/34 9/268/34
f 62/269/7 126/270/7 125/258/6 61/257/6
f 36/271/19 100/272/19 99/273/17 35/274/17
f 9/268/34 73/267/34 74/275/35 10/276/35
f 63/277/9 127/278/9 126/270/7 62/269/7
f 37/279/21 101/280/21 100/272/19 36/271/19
f 10/276/35 74/275/35 75/281/36 11/282/36
f 64/283/11 128/284/11 127/278/9 63/277/9
f 38/285/23 150/286/23 151/287/40 149/288/40 152/289/23 102/290/23 101/280/21 37/279/21
f 11/282/36 75/281/36 76/291/38 12/292/38
f 33/254/13 98/253/13 128/284/11 64/283/11
f 39/136/4 153/135/4 150/286/23 38/285/23
f 12/293/38 76/294/38 77/138/6 13/137/6
f 129/295/2 146/296/2 145/297/2 141/298/2 142/299/2 131/300/2 187/301/41 190/302/42
f 134/303/1 140/304/1 138/305/1 137/306/1 132/307/1
f 132/307/1 179/308/43 182/309/44 130/310/1 184/311/45 177/312/46 134/303/1
f 133/313/2 156/314/2 154/315/2 152/316/2 149/317/2 129/295/2 192/318/47 185/319/48
f 129/295/2 190/302/42 187/301/41 131/300/2 133/313/2 185/319/48 192/318/47
f 131/320/49 142/321/49 144/322/49 132/323/49
f 132/307/1 144/324/1 143/325/1 147/326/1 148/327/1 130/310/1 182/309/44 179/308/43
f 130/328/50 148/329/50 146/330/50 129/331/50
f 130/310/1 151/332/1 150/333/1 153/334/1 155/335/1 134/303/1 177/312/46 184/311/45
f 134/336/51 155/337/51 156/338/51 133/339/51
f 129/331/52 149/340/52 151/341/52 130/328/52
f 132/323/8 137/342/8 135/343/8 131/320/8
f 133/344/34 139/345/34 140/346/34 134/347/34
f 131/300/2 135/348/2 136/349/2 139/350/2 133/313/2
f 145/351/38 124/352/38 123/246/36 141/245/36
f 154/132/4 103/131/4 102/290/23 152/289/23
f 157/353/53 189/354/53 186/355/53 159/356/53
f 159/356/54 186/355/54 185/357/54 202/358/54 161/359/54
f 161/360/34 202/361/34 203/362/34 163/363/34
f 163/363/55 203/362/55 204/364/55 165/365/55
f 165/366/56 204/367/56 192/368/56 191/369/56 167/370/56
f 167/370/57 191/369/57 190/371/57 195/372/57 169/373/57
f 169/374/58 195/375/58 194/376/58 171/377/58
f 171/377/8 194/376/8 193/378/8 173/379/8
f 160/380/1 158/381/1 176/382/1 174/383/1 172/384/1 170/385/1 168/386/1 166/387/1 164/388/1 162/389/1
f 173/379/59 193/378/59 187/390/59 188/391/59 175/392/59
f 175/393/60 188/394/60 189/354/60 157/353/60
f 157/395/2 159/396/2 161/397/2 163/398/2 165/399/2 167/400/2 169/401/2 171/402/2 173/403/2 175/404/2
f 196/405/8 197/406/8 172/407/8 174/408/8
f 201/409/55 200/410/55 164/411/55 166/412/55
f 197/406/58 198/413/58 170/414/58 172/407/58
f 180/415/61 179/416/61 196/405/61 174/408/61 176/417/61
f 199/418/62 177/419/62 178/420/62 160/421/62 162/422/62
f 178/420/53 181/423/53 158/424/53 160/421/53
f 183/425/56 184/426/56 201/427/56 166/428/56 168/429/56
f 198/430/57 182/431/57 183/425/57 168/429/57 170/432/57
f 181/423/60 180/433/60 176/434/60 158/424/60
f 200/410/34 199/435/34 162/436/34 164/411/34
